<mxfile host="65bd71144e">
    <diagram id="thI_jLpgoRBs_bGrR-cE" name="Page-1">
        <mxGraphModel dx="839" dy="513" grid="1" gridSize="10" guides="1" tooltips="1" connect="1" arrows="1" fold="1" page="1" pageScale="1" pageWidth="827" pageHeight="1169" math="0" shadow="0">
            <root>
                <mxCell id="0"/>
                <mxCell id="1" parent="0"/>
                <mxCell id="2" value="view" style="shape=folder;fontStyle=1;tabWidth=110;tabHeight=30;tabPosition=left;html=1;boundedLbl=1;labelInHeader=1;container=1;collapsible=0;recursiveResize=0;" parent="1" vertex="1">
                    <mxGeometry x="208" y="380" width="206" height="230" as="geometry"/>
                </mxCell>
                <mxCell id="3" value="&amp;lt;&amp;lt;interface&amp;gt;&amp;gt;&lt;br&gt;View" style="swimlane;fontStyle=1;align=center;verticalAlign=middle;childLayout=stackLayout;horizontal=1;startSize=45;horizontalStack=0;resizeParent=1;resizeParentMax=0;resizeLast=0;collapsible=0;marginBottom=0;html=1;" parent="2" vertex="1">
                    <mxGeometry x="16" y="45.5" width="174" height="70" as="geometry"/>
                </mxCell>
                <mxCell id="4" value="+updateDisplay(DisplayState)" style="text;html=1;strokeColor=none;fillColor=none;align=left;verticalAlign=middle;spacingLeft=4;spacingRight=4;overflow=hidden;rotatable=0;points=[[0,0.5],[1,0.5]];portConstraint=eastwest;" parent="3" vertex="1">
                    <mxGeometry y="45" width="174" height="25" as="geometry"/>
                </mxCell>
                <mxCell id="5" value="DisplayView" style="swimlane;fontStyle=1;align=center;verticalAlign=middle;childLayout=stackLayout;horizontal=1;startSize=29;horizontalStack=0;resizeParent=1;resizeParentMax=0;resizeLast=0;collapsible=0;marginBottom=0;html=1;" vertex="1" parent="2">
                    <mxGeometry x="16" y="170" width="174" height="39" as="geometry"/>
                </mxCell>
                <mxCell id="8" style="edgeStyle=orthogonalEdgeStyle;html=1;dashed=1;endArrow=block;endFill=0;exitX=0.5;exitY=0;exitDx=0;exitDy=0;" edge="1" parent="2" source="5">
                    <mxGeometry relative="1" as="geometry">
                        <mxPoint x="101" y="115" as="targetPoint"/>
                        <Array as="points">
                            <mxPoint x="103" y="165"/>
                            <mxPoint x="101" y="165"/>
                        </Array>
                        <mxPoint x="105.5" y="165" as="sourcePoint"/>
                    </mxGeometry>
                </mxCell>
            </root>
        </mxGraphModel>
    </diagram>
</mxfile>